<svg id="Powered_by" data-name="Powered by" xmlns="http://www.w3.org/2000/svg" width="419" height="77.395" viewBox="0 0 419 77.395">
  <path id="Rectangle_Copy_12" data-name="Rectangle Copy 12" d="M0,3.015A3.008,3.008,0,0,1,3,0H416a3.008,3.008,0,0,1,3,3.015V57.637a3.008,3.008,0,0,1-3,3.015H229.172a2.992,2.992,0,0,0-2.033.8L211.557,75.886a2.989,2.989,0,0,1-4.092-.024L192.289,61.474a2.992,2.992,0,0,0-2.058-.822H3a3.008,3.008,0,0,1-3-3.015Z" fill="#55a51c"/>
  <text id="Powered_by_Semicondu" data-name="Powered by Semicondu" transform="translate(209.5 38.149)" fill="#fff" font-size="24" font-family="GothamBold, Gotham Bold"><tspan x="-175" y="0">Powered by Semiconductors</tspan></text>
</svg>
